<svg width="14" height="12" viewBox="0 0 14 12" fill="none" xmlns="http://www.w3.org/2000/svg">
    <path d="M13.0248 0H0V1.37103H1.57668L3.82654 7.55779C3.97161 7.95396 4.23463 8.29614 4.58016 8.53821C4.92568 8.78029 5.33711 8.91064 5.759 8.91168H11.6537V7.54066H5.759C5.47177 7.54066 5.21265 7.35899 5.11462 7.08959L4.78009 6.16963H11.1369C11.747 6.16963 12.2885 5.75969 12.4551 5.17495L13.6842 0.874031C13.713 0.771991 13.7177 0.664686 13.6982 0.560499C13.6786 0.456313 13.6351 0.358068 13.5713 0.273442C13.5074 0.188815 13.4249 0.1201 13.3301 0.0726651C13.2353 0.0252302 13.1308 0.000360715 13.0248 0ZM11.1369 4.7986H4.28172L3.03546 1.37103H12.1165L11.1369 4.7986Z" fill="#1A2C2E" />
    <path d="M5.82686 11.6542C6.39475 11.6542 6.85513 11.1938 6.85513 10.6259C6.85513 10.058 6.39475 9.59766 5.82686 9.59766C5.25896 9.59766 4.79858 10.058 4.79858 10.6259C4.79858 11.1938 5.25896 11.6542 5.82686 11.6542Z" fill="#1A2C2E" />
    <path d="M9.93989 11.6542C10.5078 11.6542 10.9682 11.1938 10.9682 10.6259C10.9682 10.058 10.5078 9.59766 9.93989 9.59766C9.37199 9.59766 8.91162 10.058 8.91162 10.6259C8.91162 11.1938 9.37199 11.6542 9.93989 11.6542Z" fill="#1A2C2E" />
</svg>
