<svg width="9" height="18" viewBox="0 0 9 18" fill="none" xmlns="http://www.w3.org/2000/svg">
    <path d="M0.280738 9.27031H2.18869V17.125C2.18869 17.2801 2.31435 17.4058 2.46943 17.4058H5.70443C5.85951 17.4058 5.98517 17.2801 5.98517 17.125V9.30731H8.17852C8.32113 9.30731 8.44112 9.20029 8.4574 9.05863L8.79053 6.16692C8.79968 6.08735 8.77447 6.00768 8.72124 5.948C8.66796 5.88826 8.59171 5.85406 8.5117 5.85406H5.98528V4.04139C5.98528 3.49496 6.27949 3.21788 6.85983 3.21788C6.94254 3.21788 8.5117 3.21788 8.5117 3.21788C8.66678 3.21788 8.79243 3.09216 8.79243 2.93714V0.282815C8.79243 0.127736 8.66678 0.00207746 8.5117 0.00207746H6.23519C6.21913 0.00129139 6.18348 0 6.13093 0C5.73593 0 4.36295 0.0775397 3.2784 1.07528C2.07673 2.18094 2.24377 3.50479 2.28369 3.73432V5.85401H0.280738C0.125658 5.85401 0 5.97966 0 6.13474V8.98951C0 9.14459 0.125658 9.27031 0.280738 9.27031Z" fill="white" />
</svg>
