<svg width="17" height="17" viewBox="0 0 17 17" fill="none" xmlns="http://www.w3.org/2000/svg">
    <path d="M2.09877 0H14.2478C15.402 0 16.3455 0.943901 16.3455 2.09811V14.2471C16.3455 15.401 15.402 16.3442 14.2478 16.3442H2.09877C0.944554 16.3442 0 15.4009 0 14.2471V2.09811C0 0.943901 0.944554 0 2.09877 0ZM11.9075 1.81528C11.5022 1.81528 11.1717 2.14715 11.1717 2.55219V4.31283C11.1717 4.71803 11.5022 5.04914 11.9075 5.04914H13.7547C14.1593 5.04914 14.4906 4.71803 14.4906 4.31283V2.55219C14.4906 2.14715 14.1593 1.81528 13.7547 1.81528H11.9075ZM14.4976 6.91177H13.0594C13.1958 7.35718 13.2697 7.8269 13.2697 8.31525C13.2697 11.0331 10.9941 13.2374 8.18814 13.2374C5.38286 13.2374 3.10718 11.0331 3.10718 8.31525C3.10718 7.8269 3.18182 7.35718 3.31755 6.91177H1.81708V13.8168C1.81708 14.1744 2.10907 14.4653 2.46632 14.4653H13.8487C14.2062 14.4653 14.4976 14.1744 14.4976 13.8168V6.91177ZM8.18819 4.9563C6.37601 4.9563 4.90601 6.37988 4.90601 8.13757C4.90601 9.89347 6.37601 11.3181 8.18819 11.3181C10.0013 11.3181 11.4714 9.89347 11.4714 8.13757C11.4714 6.37983 10.0013 4.9563 8.18819 4.9563Z" fill="white" />
</svg>
