<svg width="32" height="32" viewBox="0 0 32 32" fill="none" xmlns="http://www.w3.org/2000/svg">
    <path d="M0.00773852 16.3351C1.27686 14.9344 2.54597 13.526 3.81509 12.1254C4.20975 11.692 4.20975 11.6843 4.44965 12.2028C5.03004 13.4409 5.60269 14.6791 6.18308 15.9095C6.29142 16.1339 6.29915 16.3351 6.21403 16.5673C5.74198 17.906 5.29315 19.2448 4.83657 20.5836C4.79788 20.7074 4.74371 20.8235 4.69728 20.9395C4.50382 20.9008 4.41096 20.7461 4.29488 20.63C2.96385 19.3145 1.64057 17.9989 0.317279 16.6834C0.216679 16.5828 0.108339 16.4976 0 16.4048C0.00773852 16.3893 0.00773852 16.3661 0.00773852 16.3351Z" fill="#28A69E" />
    <path d="M16.6456 31.5029C15.5622 30.5511 14.4788 29.5915 13.4031 28.6396C13.0394 28.3146 12.668 27.9896 12.2965 27.6723C12.1185 27.5253 12.0644 27.4247 12.3275 27.3086C13.643 26.705 14.9431 26.0937 16.2509 25.4823C16.4057 25.4049 16.545 25.4282 16.692 25.4823C18.0695 25.9621 19.4392 26.4496 20.8166 26.914C21.1339 27.0223 21.1339 27.1074 20.9095 27.3318C19.6017 28.6164 18.3094 29.901 17.0093 31.1934C16.9087 31.294 16.8158 31.4023 16.723 31.5029C16.6998 31.5029 16.6688 31.5029 16.6456 31.5029Z" fill="#28A69E" />
    <path d="M15.4539 6.03508C15.3378 5.99639 15.2217 5.97318 15.1134 5.93448C13.7591 5.47017 12.4126 5.00586 11.0584 4.54155C10.656 4.40226 10.656 4.3713 10.95 4.08498C12.2579 2.84681 13.5657 1.60091 14.8657 0.355011C15.3842 -0.140254 15.2836 -0.0783461 15.7557 0.300841C17.1022 1.39971 18.4487 2.49858 19.8029 3.58971C20.0583 3.79865 20.0815 3.89151 19.7565 4.03855C18.41 4.65763 17.079 5.29992 15.7402 5.93448C15.6473 5.96544 15.5545 5.99639 15.4539 6.03508Z" fill="#28A69E" />
    <path d="M4.26389 8.15587C4.26389 7.20403 4.17876 6.2522 4.16328 5.30036C4.15555 5.03725 4.24841 4.93665 4.50378 4.91343C6.33007 4.77414 8.15636 4.63485 9.97491 4.48781C10.2612 4.4646 10.3464 4.52651 10.238 4.82831C9.7505 6.22898 9.27071 7.62965 8.79866 9.03032C8.73675 9.22379 8.61293 9.31665 8.44269 9.40177C7.15809 10.0054 5.88124 10.609 4.60438 11.2281C4.34127 11.3519 4.24841 11.3364 4.25615 11.0191C4.27162 10.0673 4.26389 9.11545 4.26389 8.15587Z" fill="#8ECAC7" />
    <path d="M25.6454 15.0505C25.6687 14.9731 25.6919 14.9035 25.7151 14.8261C26.1949 13.4796 26.6747 12.1331 27.1467 10.7789C27.2473 10.4925 27.3324 10.4616 27.5414 10.686C28.8569 12.1021 30.1725 13.5183 31.5035 14.9267C31.697 15.1356 31.6892 15.2595 31.4958 15.4684C30.304 16.7762 29.1278 18.0918 27.9593 19.415C27.789 19.6085 27.7116 19.6317 27.5878 19.3764C26.961 18.0144 26.3264 16.6679 25.6996 15.3059C25.6687 15.2285 25.6222 15.1434 25.6454 15.0505Z" fill="#8ECAC7" />
    <path d="M8.34989 27.3159C7.43674 27.3159 6.5236 27.401 5.61045 27.4088C5.34734 27.4165 5.239 27.3314 5.21579 27.0683C5.08423 25.2807 4.94494 23.5008 4.79791 21.721C4.77469 21.4114 4.87529 21.3727 5.14614 21.4733C6.49264 21.9531 7.83914 22.4174 9.19338 22.8817C9.38685 22.9514 9.5184 23.052 9.61126 23.2454C10.1839 24.4836 10.7566 25.7218 11.3447 26.9522C11.4917 27.2617 11.3989 27.3236 11.0971 27.3236C10.1762 27.3082 9.26303 27.3159 8.34989 27.3159Z" fill="#8ECAC7" />
    <path d="M27.5647 23.0833C27.4641 24.244 27.4873 25.1572 27.4718 26.0703C27.4718 26.3025 27.4331 26.4573 27.1391 26.4727C25.4134 26.5656 23.6954 26.6817 21.9697 26.7823C21.4822 26.8132 21.4667 26.7823 21.6292 26.318C22.0703 25.0798 22.5114 23.8416 22.9448 22.6035C23.0144 22.41 23.115 22.2785 23.3085 22.1933C24.6086 21.5975 25.9086 20.9939 27.201 20.3748C27.5105 20.2277 27.5724 20.3129 27.5647 20.6224C27.557 21.5278 27.5647 22.4255 27.5647 23.0833Z" fill="#8ECAC7" />
    <path d="M23.5483 4.08482C24.4614 4.12352 25.3746 4.17769 26.2877 4.2009C26.6437 4.20864 26.7675 4.31698 26.783 4.68843C26.8449 6.33673 26.9378 7.9773 27.0384 9.6256C27.0538 9.93514 27.0074 10.0048 26.6979 9.89645C25.4133 9.43988 24.1209 9.00652 22.8286 8.56543C22.6197 8.49578 22.4804 8.3797 22.3875 8.1785C21.7917 6.87843 21.1958 5.5861 20.5844 4.29376C20.4529 4.01518 20.4684 3.91458 20.8089 3.93779C21.722 3.9997 22.6352 4.03065 23.5483 4.06935C23.5483 4.07709 23.5483 4.07709 23.5483 4.08482Z" fill="#8ECAC7" />
    <path d="M25.4907 15.4688C25.7538 16.0182 25.9627 16.467 26.1717 16.9236C26.5895 17.8213 26.9997 18.7267 27.4253 19.6243C27.5104 19.8023 27.5801 19.9416 27.3324 20.0577C26.0479 20.6458 24.7633 21.2494 23.4787 21.8453C23.4245 21.8685 23.3626 21.9072 23.2388 21.8298C23.9739 19.7482 24.7168 17.6588 25.4907 15.4688Z" fill="#28A69E" />
    <path d="M9.09277 9.0917C9.25528 8.56548 9.36362 8.19403 9.49518 7.8071C9.82019 6.85526 10.1452 5.91116 10.4702 4.95159C10.5399 4.74265 10.6327 4.65752 10.8649 4.74265C12.2037 5.20696 13.5424 5.66353 14.8812 6.1201C14.9276 6.13558 14.9663 6.16654 15.0901 6.24392C13.0781 7.19576 11.1203 8.12438 9.09277 9.0917Z" fill="#8ECAC7" />
    <path d="M22.1244 8.3184C20.035 7.60646 17.9843 6.90225 15.9336 6.19805C15.98 6.05101 16.0961 6.04328 16.1812 5.99684C17.4271 5.40098 18.673 4.81285 19.9189 4.21699C20.0892 4.13186 20.2207 4.04674 20.3368 4.30985C20.9172 5.5867 21.5131 6.86356 22.1012 8.13268C22.1089 8.17911 22.1012 8.2178 22.1244 8.3184Z" fill="#28A69E" />
    <path d="M6.50806 16.5986C7.4599 18.6416 8.42721 20.7233 9.34036 22.6734C9.23202 22.6502 9.0076 22.5496 8.907 22.5109C7.69979 22.1007 6.50032 21.6751 5.29311 21.265C5.01453 21.1721 4.93714 21.0638 5.03774 20.7697C5.49431 19.5006 5.91993 18.216 6.35329 16.9391C6.38424 16.8617 6.42294 16.7844 6.50806 16.5986Z" fill="#28A69E" />
    <path d="M22.6816 8.79004C23.0608 8.91386 23.3317 8.99898 23.5948 9.09184C24.6317 9.44781 25.661 9.80379 26.6979 10.152C26.9146 10.2217 27.0694 10.2913 26.961 10.5854C26.489 11.8932 26.0247 13.201 25.5604 14.5088C25.5449 14.5552 25.5139 14.5939 25.4366 14.7177C24.5157 12.7367 23.618 10.8175 22.6816 8.79004Z" fill="#8ECAC7" />
    <path d="M9.93624 23.1447C11.9483 23.8412 14.0609 24.5763 16.0652 25.2728C15.9568 25.3579 15.8485 25.3966 15.7788 25.4353C14.5407 26.0157 13.3102 26.5883 12.0721 27.161C11.9405 27.2229 11.7935 27.339 11.6851 27.1145C11.0815 25.8222 10.4083 24.3828 9.80469 23.0905C9.80469 23.0828 9.94398 23.1447 9.93624 23.1447Z" fill="#8ECAC7" />
    <path d="M6.46933 15.8088C6.39195 15.7469 6.33778 15.6541 6.31456 15.5999C5.72643 14.354 5.14604 13.1004 4.56565 11.8544C4.49601 11.6997 4.44184 11.5759 4.65078 11.4753C5.92763 10.8717 7.21223 10.2603 8.60516 9.60254C7.87774 11.7229 7.15806 13.8046 6.46933 15.8088Z" fill="#28A69E" />
    <path d="M22.6196 22.5186C22.697 22.7043 22.6196 22.8049 22.581 22.9132C22.1708 24.0817 21.7452 25.2425 21.3505 26.411C21.2422 26.7206 21.1184 26.767 20.8243 26.6587C19.532 26.1944 18.2242 25.7533 16.9241 25.3044C16.9164 25.2657 16.9086 25.2348 16.9009 25.1961C18.7968 24.2984 20.6928 23.4162 22.6196 22.5186Z" fill="#28A69E" />
</svg>
