<svg width="14" height="19" viewBox="0 0 14 19" fill="none" xmlns="http://www.w3.org/2000/svg">
    <path d="M6.63029 0C4.01637 0 1.89062 2.12574 1.89062 4.73966C1.89062 7.35358 4.01637 9.47932 6.63029 9.47932C9.24421 9.47932 11.3699 7.35358 11.3699 4.73966C11.3699 2.12574 9.24421 0 6.63029 0ZM6.63029 7.10949C5.32333 7.10949 4.26045 6.04662 4.26045 4.73966C4.26045 3.4327 5.32333 2.36983 6.63029 2.36983C7.93725 2.36983 9.00011 3.4327 9.00011 4.73966C9.00011 6.04662 7.93725 7.10949 6.63029 7.10949Z" fill="white" />
    <path d="M12.9159 9.34748C12.4526 8.88417 11.7037 8.88417 11.2404 9.34748C8.69994 11.8879 4.56459 11.8879 2.02295 9.34748C1.55964 8.88417 0.810778 8.88417 0.347476 9.34748C-0.115825 9.81078 -0.115825 10.5596 0.347476 11.0241C1.82151 12.4982 3.69012 13.3383 5.61679 13.5575L2.2386 16.9357C1.7753 17.399 1.7753 18.1478 2.2386 18.6111C2.7019 19.0744 3.45077 19.0744 3.91407 18.6111L6.63108 15.8941L9.34809 18.6111C9.57914 18.8422 9.88248 18.9583 10.1858 18.9583C10.4892 18.9583 10.7925 18.8422 11.0236 18.6111C11.4869 18.1478 11.4869 17.399 11.0236 16.9357L7.64536 13.5575C9.57204 13.3383 11.4406 12.4982 12.9147 11.0241C13.378 10.5608 13.378 9.81078 12.9159 9.34748Z" fill="white" />
</svg>
