<svg width="11" height="11" viewBox="0 0 11 11" fill="none" xmlns="http://www.w3.org/2000/svg">
    <path d="M5.66245 1.9252C5.53316 1.9252 5.40916 1.87383 5.31774 1.78241C5.22632 1.69099 5.17495 1.56699 5.17495 1.4377C5.17495 1.3084 5.22632 1.1844 5.31774 1.09298C5.40916 1.00156 5.53316 0.950195 5.66245 0.950195H9.56245C9.69635 0.950195 9.8179 1.00415 9.9063 1.0919L9.90695 1.0932L9.90825 1.09385C9.99919 1.18515 10.0502 1.30883 10.05 1.4377V5.33769C10.05 5.46699 9.99859 5.59098 9.90717 5.68241C9.81574 5.77383 9.69175 5.82519 9.56245 5.82519C9.43316 5.82519 9.30916 5.77383 9.21774 5.68241C9.12631 5.59098 9.07495 5.46699 9.07495 5.33769V2.6142L5.51945 6.16969C5.47482 6.21759 5.421 6.25601 5.3612 6.28265C5.3014 6.3093 5.23685 6.32362 5.17139 6.32478C5.10594 6.32593 5.04092 6.31389 4.98021 6.28937C4.91951 6.26486 4.86437 6.22836 4.81808 6.18207C4.77179 6.13578 4.73529 6.08064 4.71077 6.01993C4.68626 5.95923 4.67421 5.89421 4.67537 5.82876C4.67652 5.7633 4.69085 5.69874 4.7175 5.63895C4.74414 5.57915 4.78256 5.52533 4.83045 5.48069L8.38595 1.9252H5.66245Z" fill="white" />
    <path d="M3.06245 2.57559C2.76077 2.57559 2.47144 2.69543 2.25812 2.90875C2.04479 3.12207 1.92495 3.4114 1.92495 3.71309V7.93809C1.92495 8.56599 2.43455 9.07559 3.06245 9.07559H7.28745C7.58914 9.07559 7.87846 8.95574 8.09179 8.74242C8.30511 8.5291 8.42495 8.23977 8.42495 7.93809V6.80059C8.42495 6.67129 8.47631 6.5473 8.56774 6.45587C8.65916 6.36445 8.78316 6.31309 8.91245 6.31309C9.04174 6.31309 9.16574 6.36445 9.25717 6.45587C9.34859 6.5473 9.39995 6.67129 9.39995 6.80059V7.93809C9.39995 8.49836 9.17739 9.03568 8.78121 9.43185C8.38504 9.82802 7.84772 10.0506 7.28745 10.0506H3.06245C2.50218 10.0506 1.96486 9.82802 1.56869 9.43185C1.17252 9.03568 0.949951 8.49836 0.949951 7.93809V3.71309C0.949951 3.15282 1.17252 2.61549 1.56869 2.21932C1.96486 1.82315 2.50218 1.60059 3.06245 1.60059H4.19995C4.32924 1.60059 4.45324 1.65195 4.54467 1.74337C4.63609 1.8348 4.68745 1.95879 4.68745 2.08809C4.68745 2.21738 4.63609 2.34138 4.54467 2.4328C4.45324 2.52422 4.32924 2.57559 4.19995 2.57559H3.06245Z" fill="white" />
</svg>
