<svg width="10" height="10" viewBox="0 0 10 10" fill="none" xmlns="http://www.w3.org/2000/svg">
    <path d="M9.67188 4.1875H5.8125V0.328125C5.8125 0.216406 5.72109 0.125 5.60938 0.125H4.39062C4.27891 0.125 4.1875 0.216406 4.1875 0.328125V4.1875H0.328125C0.216406 4.1875 0.125 4.27891 0.125 4.39062V5.60938C0.125 5.72109 0.216406 5.8125 0.328125 5.8125H4.1875V9.67188C4.1875 9.78359 4.27891 9.875 4.39062 9.875H5.60938C5.72109 9.875 5.8125 9.78359 5.8125 9.67188V5.8125H9.67188C9.78359 5.8125 9.875 5.72109 9.875 5.60938V4.39062C9.875 4.27891 9.78359 4.1875 9.67188 4.1875Z" fill="#097F8A" />
</svg>
