<svg width="21" height="12" viewBox="0 0 21 12" fill="none" xmlns="http://www.w3.org/2000/svg">
    <path d="M20.1856 10.4564C20.161 10.4034 20.1381 10.3595 20.1168 10.3243C19.7647 9.69016 19.0919 8.91183 18.0988 7.98905L18.0778 7.96792L18.0673 7.95756L18.0566 7.94694H18.046C17.5952 7.51725 17.3098 7.22833 17.1903 7.08042C16.9715 6.79864 16.9226 6.51343 17.0421 6.22444C17.1265 6.0061 17.4438 5.54499 17.993 4.84048C18.2819 4.46712 18.5108 4.16788 18.6797 3.94243C19.8984 2.32226 20.4268 1.28695 20.2647 0.836089L20.2017 0.730729C20.1594 0.667299 20.0502 0.609272 19.8744 0.556351C19.6981 0.503542 19.4727 0.494809 19.1979 0.530003L16.1551 0.551022C16.1058 0.533555 16.0354 0.535183 15.9437 0.556351C15.8521 0.577519 15.8063 0.588141 15.8063 0.588141L15.7533 0.614601L15.7113 0.64639C15.676 0.66741 15.6373 0.70438 15.595 0.757227C15.5529 0.809888 15.5177 0.871689 15.4896 0.942114C15.1583 1.79443 14.7817 2.58686 14.3589 3.31938C14.0983 3.75617 13.8589 4.13472 13.6403 4.45524C13.422 4.77565 13.2389 5.01172 13.0911 5.16304C12.943 5.31451 12.8094 5.43585 12.6895 5.52752C12.5697 5.61923 12.4782 5.65797 12.4149 5.6438C12.3514 5.62962 12.2917 5.61556 12.2351 5.6015C12.1365 5.53807 12.0573 5.45181 11.9975 5.34263C11.9375 5.23346 11.8971 5.09606 11.8759 4.93052C11.8549 4.76488 11.8425 4.6224 11.8389 4.50261C11.8356 4.38297 11.8371 4.21373 11.8443 3.99539C11.8516 3.77694 11.8549 3.62913 11.8549 3.55164C11.8549 3.28393 11.8601 2.99338 11.8706 2.67993C11.8813 2.36648 11.8899 2.11813 11.8971 1.93516C11.9043 1.75202 11.9076 1.55825 11.9076 1.35397C11.9076 1.14969 11.8952 0.989483 11.8706 0.873207C11.8463 0.757078 11.8091 0.644355 11.7599 0.535072C11.7105 0.425901 11.6382 0.341451 11.5433 0.2815C11.4483 0.221622 11.3301 0.174105 11.1894 0.1388C10.816 0.0543125 10.3406 0.00860873 9.76289 0.00150336C8.4528 -0.0125593 7.611 0.0720388 7.23767 0.255187C7.08976 0.332569 6.9559 0.438298 6.83622 0.572042C6.7094 0.727065 6.69171 0.811664 6.78326 0.825579C7.20596 0.888898 7.5052 1.04037 7.68131 1.27984L7.74478 1.40674C7.79415 1.49829 7.84344 1.66039 7.89277 1.89279C7.94203 2.1252 7.97382 2.38228 7.98781 2.66391C8.02296 3.1782 8.02296 3.61843 7.98781 3.98466C7.95254 4.35103 7.91923 4.63624 7.88744 4.84052C7.85565 5.0448 7.80814 5.21033 7.74478 5.33708C7.68131 5.46387 7.63909 5.54136 7.61792 5.56949C7.59679 5.59761 7.57917 5.61534 7.56519 5.6223C7.47363 5.65738 7.37841 5.67525 7.27986 5.67525C7.18116 5.67525 7.06148 5.62589 6.92063 5.52723C6.77982 5.42856 6.63368 5.29304 6.48221 5.12044C6.33074 4.9478 6.15991 4.70656 5.96966 4.39666C5.77955 4.08676 5.58231 3.7205 5.37803 3.29788L5.20901 2.99138C5.10336 2.79421 4.95903 2.50711 4.77588 2.13034C4.59262 1.75342 4.43064 1.38883 4.28983 1.03663C4.23354 0.888713 4.14898 0.7761 4.0363 0.698607L3.98341 0.666818C3.94826 0.638692 3.89182 0.608828 3.8144 0.577001C3.73687 0.545212 3.65597 0.522416 3.57137 0.50839L0.676343 0.52941C0.380507 0.52941 0.179781 0.59643 0.0740883 0.730285L0.0317891 0.793604C0.0106581 0.828872 0 0.885197 0 0.962727C0 1.04022 0.0211311 1.13533 0.0634302 1.24794C0.486052 2.24121 0.945644 3.19914 1.44221 4.12188C1.93877 5.04462 2.37027 5.7879 2.73646 6.35108C3.10272 6.91466 3.47604 7.44656 3.85644 7.94653C4.23684 8.44668 4.48863 8.7672 4.61183 8.90801C4.73518 9.04909 4.83206 9.15456 4.90248 9.22498L5.16668 9.47852C5.33573 9.6476 5.58397 9.8501 5.91152 10.086C6.23915 10.3221 6.60185 10.5545 6.99983 10.7836C7.39788 11.0124 7.86095 11.199 8.3893 11.3434C8.91757 11.4879 9.43175 11.5459 9.9319 11.5179H11.147C11.3934 11.4966 11.5801 11.4191 11.707 11.2854L11.7491 11.2324C11.7773 11.1904 11.8038 11.1251 11.8282 11.0372C11.8529 10.9491 11.8652 10.8521 11.8652 10.7466C11.858 10.4438 11.8811 10.1709 11.9338 9.92789C11.9864 9.68498 12.0465 9.50183 12.1136 9.37849C12.1807 9.25525 12.2564 9.15126 12.3407 9.06696C12.4251 8.98247 12.4853 8.93129 12.5206 8.91368C12.5557 8.89595 12.5837 8.88392 12.6048 8.87671C12.7739 8.82038 12.9728 8.87493 13.202 9.04061C13.4309 9.20614 13.6457 9.41053 13.8466 9.65345C14.0473 9.89659 14.2885 10.1694 14.5702 10.4722C14.8521 10.7751 15.0986 11.0003 15.3098 11.1485L15.5211 11.2752C15.6621 11.3598 15.8453 11.4373 16.0707 11.5078C16.2958 11.5782 16.4929 11.5958 16.6622 11.5606L19.367 11.5184C19.6345 11.5184 19.8427 11.4741 19.9903 11.3862C20.1383 11.2982 20.2262 11.2012 20.2545 11.0957C20.2828 10.99 20.2843 10.8702 20.2599 10.7362C20.2348 10.6026 20.2102 10.5092 20.1856 10.4564Z" fill="white" />
</svg>
